<svg xmlns="http://www.w3.org/2000/svg" xmlns:xlink="http://www.w3.org/1999/xlink" width="500" zoomAndPan="magnify" viewBox="0 0 375 374.999991" height="500" preserveAspectRatio="xMidYMid meet" version="1.0"><defs><g/><clipPath id="c6993945dd"><path d="M 98.082031 49.011719 L 286 49.011719 L 286 237.261719 L 98.082031 237.261719 Z M 98.082031 49.011719 " clip-rule="nonzero"/></clipPath></defs><g fill="#231916" fill-opacity="1"><g transform="translate(18.386074, 293.450758)"><g><path d="M 21.589844 0.765625 C 30.191406 0.765625 36.273438 -5.480469 36.273438 -14.410156 C 36.273438 -23.234375 30.191406 -29.535156 21.589844 -29.535156 C 18.027344 -29.535156 14.902344 -28.4375 12.492188 -26.519531 L 12.492188 -40.546875 L 4.164062 -40.546875 L 4.164062 0 L 10.355469 0 L 11.289062 -3.289062 C 13.863281 -0.710938 17.425781 0.765625 21.589844 0.765625 Z M 12.164062 -14.410156 C 12.164062 -19.070312 15.453125 -22.410156 20.109375 -22.410156 C 24.820312 -22.410156 28.054688 -19.070312 28.054688 -14.410156 C 28.054688 -9.699219 24.820312 -6.410156 20.109375 -6.410156 C 15.453125 -6.410156 12.164062 -9.699219 12.164062 -14.410156 Z M 12.164062 -14.410156 "/></g></g></g><g fill="#231916" fill-opacity="1"><g transform="translate(55.149466, 293.450758)"><g><path d="M 15.617188 0.765625 C 19.398438 0.765625 22.792969 -0.546875 25.097656 -3.234375 L 25.972656 0 L 32.164062 0 L 32.164062 -28.765625 L 23.835938 -28.765625 L 23.835938 -13.753906 C 23.835938 -9.207031 21.371094 -6.410156 17.589844 -6.410156 C 14.082031 -6.410156 11.945312 -8.875 11.945312 -13.097656 L 11.945312 -28.765625 L 3.617188 -28.765625 L 3.617188 -12.273438 C 3.617188 -4.273438 8.164062 0.765625 15.617188 0.765625 Z M 15.617188 0.765625 "/></g></g></g><g fill="#231916" fill-opacity="1"><g transform="translate(89.830854, 293.450758)"><g><path d="M 4.164062 0 L 12.492188 0 L 12.492188 -28.765625 L 4.164062 -28.765625 Z M 2.957031 -38.082031 C 2.957031 -35.011719 5.152344 -32.875 8.328125 -32.875 C 11.507812 -32.875 13.699219 -35.011719 13.699219 -38.082031 C 13.699219 -41.152344 11.507812 -43.289062 8.328125 -43.289062 C 5.152344 -43.289062 2.957031 -41.152344 2.957031 -38.082031 Z M 2.957031 -38.082031 "/></g></g></g><g fill="#231916" fill-opacity="1"><g transform="translate(104.842828, 293.450758)"><g><path d="M 4.164062 0 L 12.492188 0 L 12.492188 -40.546875 L 4.164062 -40.546875 Z M 4.164062 0 "/></g></g></g><g fill="#231916" fill-opacity="1"><g transform="translate(119.854802, 293.450758)"><g><path d="M 16.765625 0.765625 C 20.929688 0.765625 24.492188 -0.710938 27.070312 -3.289062 L 28.054688 0 L 34.246094 0 L 34.246094 -40.546875 L 25.917969 -40.546875 L 25.917969 -26.519531 C 23.453125 -28.4375 20.328125 -29.535156 16.765625 -29.535156 C 8.21875 -29.535156 2.136719 -23.234375 2.136719 -14.410156 C 2.136719 -5.480469 8.21875 0.765625 16.765625 0.765625 Z M 10.355469 -14.410156 C 10.355469 -19.070312 13.589844 -22.410156 18.300781 -22.410156 C 22.957031 -22.410156 26.191406 -19.070312 26.191406 -14.410156 C 26.191406 -9.699219 22.957031 -6.410156 18.300781 -6.410156 C 13.589844 -6.410156 10.355469 -9.699219 10.355469 -14.410156 Z M 10.355469 -14.410156 "/></g></g></g><g fill="#231916" fill-opacity="1"><g transform="translate(156.618193, 293.450758)"><g/></g></g><g fill="#231916" fill-opacity="1"><g transform="translate(167.84969, 293.450758)"><g><path d="M 21.589844 0.765625 C 30.191406 0.765625 36.273438 -5.480469 36.273438 -14.410156 C 36.273438 -23.234375 30.191406 -29.535156 21.589844 -29.535156 C 17.425781 -29.535156 13.863281 -28.054688 11.289062 -25.480469 L 10.355469 -28.765625 L 4.164062 -28.765625 L 4.164062 10.957031 L 12.492188 10.957031 L 12.492188 -2.246094 C 14.902344 -0.328125 18.027344 0.765625 21.589844 0.765625 Z M 12.164062 -14.410156 C 12.164062 -19.070312 15.453125 -22.410156 20.109375 -22.410156 C 24.820312 -22.410156 28.054688 -19.070312 28.054688 -14.410156 C 28.054688 -9.699219 24.820312 -6.410156 20.109375 -6.410156 C 15.453125 -6.410156 12.164062 -9.699219 12.164062 -14.410156 Z M 12.164062 -14.410156 "/></g></g></g><g fill="#231916" fill-opacity="1"><g transform="translate(204.613082, 293.450758)"><g><path d="M 17.753906 0.765625 C 24.820312 0.765625 30.410156 -2.847656 32.929688 -8.929688 L 24.492188 -8.929688 C 23.125 -7.015625 20.65625 -5.917969 17.917969 -5.917969 C 14.136719 -5.917969 11.179688 -8.054688 10.410156 -12 L 33.480469 -12 C 33.972656 -22.519531 27.726562 -29.535156 17.863281 -29.535156 C 8.546875 -29.535156 2.136719 -23.34375 2.136719 -14.410156 C 2.136719 -5.425781 8.492188 0.765625 17.753906 0.765625 Z M 10.464844 -17.261719 C 11.398438 -20.765625 14.246094 -22.902344 17.917969 -22.902344 C 21.753906 -22.902344 24.492188 -20.765625 25.425781 -17.261719 Z M 10.464844 -17.261719 "/></g></g></g><g fill="#231916" fill-opacity="1"><g transform="translate(238.527426, 293.450758)"><g><path d="M 4.164062 0 L 12.492188 0 L 12.492188 -12.710938 C 12.492188 -18.902344 15.398438 -21.207031 20.164062 -21.207031 L 23.34375 -21.207031 L 23.34375 -28.765625 L 20.21875 -28.765625 C 16 -28.765625 13.316406 -27.617188 11.453125 -24.929688 L 10.355469 -28.765625 L 4.164062 -28.765625 Z M 4.164062 0 "/></g></g></g><g fill="#231916" fill-opacity="1"><g transform="translate(262.086558, 293.450758)"><g><path d="M 4.164062 0 L 12.492188 0 L 12.492188 -15.5625 C 12.492188 -19.726562 14.792969 -22.410156 18.355469 -22.410156 C 21.808594 -22.410156 23.945312 -19.835938 23.945312 -15.78125 L 23.945312 0 L 32.164062 0 L 32.164062 -15.5625 C 32.164062 -19.726562 34.464844 -22.410156 38.027344 -22.410156 C 41.480469 -22.410156 43.617188 -19.835938 43.617188 -15.78125 L 43.617188 0 L 51.945312 0 L 51.945312 -16.765625 C 51.945312 -24.65625 47.234375 -29.535156 39.890625 -29.535156 C 35.507812 -29.535156 31.890625 -27.835938 29.535156 -24.820312 C 27.507812 -27.890625 24.164062 -29.535156 20.054688 -29.535156 C 16.382812 -29.535156 13.261719 -28.273438 11.179688 -25.808594 L 10.355469 -28.765625 L 4.164062 -28.765625 Z M 4.164062 0 "/></g></g></g><g fill="#231916" fill-opacity="1"><g transform="translate(315.999057, 293.450758)"><g><path d="M 4.164062 0 L 12.492188 0 L 12.492188 -28.765625 L 4.164062 -28.765625 Z M 2.957031 -38.082031 C 2.957031 -35.011719 5.152344 -32.875 8.328125 -32.875 C 11.507812 -32.875 13.699219 -35.011719 13.699219 -38.082031 C 13.699219 -41.152344 11.507812 -43.289062 8.328125 -43.289062 C 5.152344 -43.289062 2.957031 -41.152344 2.957031 -38.082031 Z M 2.957031 -38.082031 "/></g></g></g><g fill="#231916" fill-opacity="1"><g transform="translate(331.011031, 293.450758)"><g><path d="M 18.027344 0 L 23.289062 0 L 23.289062 -7.234375 L 19.835938 -7.234375 C 16.546875 -7.234375 15.015625 -8.820312 15.015625 -12.164062 L 15.015625 -21.972656 L 22.902344 -21.972656 L 22.902344 -28.765625 L 15.015625 -28.765625 L 15.015625 -36.21875 L 8.546875 -36.21875 L 8.054688 -32.492188 C 7.617188 -29.535156 6.792969 -28.765625 3.671875 -28.765625 L 1.097656 -28.765625 L 1.097656 -21.972656 L 6.683594 -21.972656 L 6.683594 -10.902344 C 6.683594 -3.890625 10.738281 0 18.027344 0 Z M 18.027344 0 "/></g></g></g><g fill="#c41818" fill-opacity="1"><g transform="translate(61.069074, 322.357788)"><g><path d="M 7.359375 -0.765625 L 7.359375 0 L 1.375 0 L 1.375 -8.453125 L 7.171875 -8.453125 L 7.171875 -7.6875 L 2.265625 -7.6875 L 2.265625 -4.671875 L 6.640625 -4.671875 L 6.640625 -3.90625 L 2.265625 -3.90625 L 2.265625 -0.765625 Z M 7.359375 -0.765625 "/></g></g></g><g fill="#c41818" fill-opacity="1"><g transform="translate(75.939161, 322.357788)"><g><path d="M 8.4375 -8.453125 L 8.4375 0 L 7.703125 0 L 2.265625 -6.859375 L 2.265625 0 L 1.375 0 L 1.375 -8.453125 L 2.109375 -8.453125 L 7.5625 -1.59375 L 7.5625 -8.453125 Z M 8.4375 -8.453125 "/></g></g></g><g fill="#c41818" fill-opacity="1"><g transform="translate(92.54655, 322.357788)"><g><path d="M 7.328125 -4.234375 L 8.1875 -4.234375 L 8.1875 -1 C 7.789062 -0.65625 7.320312 -0.390625 6.78125 -0.203125 C 6.25 -0.015625 5.679688 0.078125 5.078125 0.078125 C 4.234375 0.078125 3.472656 -0.101562 2.796875 -0.46875 C 2.117188 -0.84375 1.585938 -1.359375 1.203125 -2.015625 C 0.816406 -2.671875 0.625 -3.410156 0.625 -4.234375 C 0.625 -5.046875 0.816406 -5.78125 1.203125 -6.4375 C 1.585938 -7.09375 2.117188 -7.601562 2.796875 -7.96875 C 3.472656 -8.34375 4.238281 -8.53125 5.09375 -8.53125 C 5.738281 -8.53125 6.332031 -8.425781 6.875 -8.21875 C 7.414062 -8.007812 7.867188 -7.707031 8.234375 -7.3125 L 7.6875 -6.734375 C 7.007812 -7.398438 6.160156 -7.734375 5.140625 -7.734375 C 4.453125 -7.734375 3.832031 -7.582031 3.28125 -7.28125 C 2.726562 -6.976562 2.296875 -6.554688 1.984375 -6.015625 C 1.671875 -5.484375 1.515625 -4.890625 1.515625 -4.234375 C 1.515625 -3.566406 1.671875 -2.96875 1.984375 -2.4375 C 2.296875 -1.90625 2.722656 -1.484375 3.265625 -1.171875 C 3.816406 -0.867188 4.4375 -0.71875 5.125 -0.71875 C 5.988281 -0.71875 6.722656 -0.9375 7.328125 -1.375 Z M 7.328125 -4.234375 "/></g></g></g><g fill="#c41818" fill-opacity="1"><g transform="translate(108.671357, 322.357788)"><g><path d="M 1.375 -8.453125 L 2.265625 -8.453125 L 2.265625 0 L 1.375 0 Z M 1.375 -8.453125 "/></g></g></g><g fill="#c41818" fill-opacity="1"><g transform="translate(119.113704, 322.357788)"><g><path d="M 8.4375 -8.453125 L 8.4375 0 L 7.703125 0 L 2.265625 -6.859375 L 2.265625 0 L 1.375 0 L 1.375 -8.453125 L 2.109375 -8.453125 L 7.5625 -1.59375 L 7.5625 -8.453125 Z M 8.4375 -8.453125 "/></g></g></g><g fill="#c41818" fill-opacity="1"><g transform="translate(135.721097, 322.357788)"><g><path d="M 7.359375 -0.765625 L 7.359375 0 L 1.375 0 L 1.375 -8.453125 L 7.171875 -8.453125 L 7.171875 -7.6875 L 2.265625 -7.6875 L 2.265625 -4.671875 L 6.640625 -4.671875 L 6.640625 -3.90625 L 2.265625 -3.90625 L 2.265625 -0.765625 Z M 7.359375 -0.765625 "/></g></g></g><g fill="#c41818" fill-opacity="1"><g transform="translate(150.591187, 322.357788)"><g><path d="M 7.359375 -0.765625 L 7.359375 0 L 1.375 0 L 1.375 -8.453125 L 7.171875 -8.453125 L 7.171875 -7.6875 L 2.265625 -7.6875 L 2.265625 -4.671875 L 6.640625 -4.671875 L 6.640625 -3.90625 L 2.265625 -3.90625 L 2.265625 -0.765625 Z M 7.359375 -0.765625 "/></g></g></g><g fill="#c41818" fill-opacity="1"><g transform="translate(165.461277, 322.357788)"><g><path d="M 7.15625 0 L 5.21875 -2.71875 C 5 -2.695312 4.773438 -2.6875 4.546875 -2.6875 L 2.265625 -2.6875 L 2.265625 0 L 1.375 0 L 1.375 -8.453125 L 4.546875 -8.453125 C 5.617188 -8.453125 6.460938 -8.191406 7.078125 -7.671875 C 7.691406 -7.160156 8 -6.457031 8 -5.5625 C 8 -4.894531 7.832031 -4.332031 7.5 -3.875 C 7.164062 -3.425781 6.6875 -3.101562 6.0625 -2.90625 L 8.125 0 Z M 4.515625 -3.4375 C 5.347656 -3.4375 5.988281 -3.617188 6.4375 -3.984375 C 6.882812 -4.359375 7.109375 -4.882812 7.109375 -5.5625 C 7.109375 -6.238281 6.882812 -6.757812 6.4375 -7.125 C 5.988281 -7.5 5.347656 -7.6875 4.515625 -7.6875 L 2.265625 -7.6875 L 2.265625 -3.4375 Z M 4.515625 -3.4375 "/></g></g></g><g fill="#c41818" fill-opacity="1"><g transform="translate(180.982852, 322.357788)"><g><path d="M 1.375 -8.453125 L 2.265625 -8.453125 L 2.265625 0 L 1.375 0 Z M 1.375 -8.453125 "/></g></g></g><g fill="#c41818" fill-opacity="1"><g transform="translate(191.425202, 322.357788)"><g><path d="M 8.4375 -8.453125 L 8.4375 0 L 7.703125 0 L 2.265625 -6.859375 L 2.265625 0 L 1.375 0 L 1.375 -8.453125 L 2.109375 -8.453125 L 7.5625 -1.59375 L 7.5625 -8.453125 Z M 8.4375 -8.453125 "/></g></g></g><g fill="#c41818" fill-opacity="1"><g transform="translate(208.032595, 322.357788)"><g><path d="M 7.328125 -4.234375 L 8.1875 -4.234375 L 8.1875 -1 C 7.789062 -0.65625 7.320312 -0.390625 6.78125 -0.203125 C 6.25 -0.015625 5.679688 0.078125 5.078125 0.078125 C 4.234375 0.078125 3.472656 -0.101562 2.796875 -0.46875 C 2.117188 -0.84375 1.585938 -1.359375 1.203125 -2.015625 C 0.816406 -2.671875 0.625 -3.410156 0.625 -4.234375 C 0.625 -5.046875 0.816406 -5.78125 1.203125 -6.4375 C 1.585938 -7.09375 2.117188 -7.601562 2.796875 -7.96875 C 3.472656 -8.34375 4.238281 -8.53125 5.09375 -8.53125 C 5.738281 -8.53125 6.332031 -8.425781 6.875 -8.21875 C 7.414062 -8.007812 7.867188 -7.707031 8.234375 -7.3125 L 7.6875 -6.734375 C 7.007812 -7.398438 6.160156 -7.734375 5.140625 -7.734375 C 4.453125 -7.734375 3.832031 -7.582031 3.28125 -7.28125 C 2.726562 -6.976562 2.296875 -6.554688 1.984375 -6.015625 C 1.671875 -5.484375 1.515625 -4.890625 1.515625 -4.234375 C 1.515625 -3.566406 1.671875 -2.96875 1.984375 -2.4375 C 2.296875 -1.90625 2.722656 -1.484375 3.265625 -1.171875 C 3.816406 -0.867188 4.4375 -0.71875 5.125 -0.71875 C 5.988281 -0.71875 6.722656 -0.9375 7.328125 -1.375 Z M 7.328125 -4.234375 "/></g></g></g><g fill="#c41818" fill-opacity="1"><g transform="translate(224.157406, 322.357788)"><g/></g></g><g fill="#c41818" fill-opacity="1"><g transform="translate(234.117174, 322.357788)"><g><path d="M 5.078125 0.078125 C 4.234375 0.078125 3.472656 -0.109375 2.796875 -0.484375 C 2.117188 -0.859375 1.585938 -1.367188 1.203125 -2.015625 C 0.816406 -2.671875 0.625 -3.410156 0.625 -4.234375 C 0.625 -5.046875 0.816406 -5.773438 1.203125 -6.421875 C 1.585938 -7.078125 2.117188 -7.59375 2.796875 -7.96875 C 3.472656 -8.34375 4.234375 -8.53125 5.078125 -8.53125 C 5.910156 -8.53125 6.660156 -8.34375 7.328125 -7.96875 C 8.003906 -7.601562 8.535156 -7.09375 8.921875 -6.4375 C 9.304688 -5.78125 9.5 -5.046875 9.5 -4.234375 C 9.5 -3.410156 9.304688 -2.671875 8.921875 -2.015625 C 8.535156 -1.359375 8.003906 -0.84375 7.328125 -0.46875 C 6.660156 -0.101562 5.910156 0.078125 5.078125 0.078125 Z M 5.078125 -0.71875 C 5.742188 -0.71875 6.34375 -0.867188 6.875 -1.171875 C 7.414062 -1.472656 7.835938 -1.890625 8.140625 -2.421875 C 8.453125 -2.960938 8.609375 -3.566406 8.609375 -4.234375 C 8.609375 -4.890625 8.453125 -5.484375 8.140625 -6.015625 C 7.835938 -6.554688 7.414062 -6.976562 6.875 -7.28125 C 6.34375 -7.582031 5.742188 -7.734375 5.078125 -7.734375 C 4.398438 -7.734375 3.789062 -7.582031 3.25 -7.28125 C 2.707031 -6.976562 2.28125 -6.554688 1.96875 -6.015625 C 1.664062 -5.484375 1.515625 -4.890625 1.515625 -4.234375 C 1.515625 -3.566406 1.664062 -2.960938 1.96875 -2.421875 C 2.28125 -1.890625 2.707031 -1.472656 3.25 -1.171875 C 3.789062 -0.867188 4.398438 -0.71875 5.078125 -0.71875 Z M 5.078125 -0.71875 "/></g></g></g><g fill="#c41818" fill-opacity="1"><g transform="translate(251.038247, 322.357788)"><g><path d="M 2.265625 -7.6875 L 2.265625 -4.359375 L 6.640625 -4.359375 L 6.640625 -3.59375 L 2.265625 -3.59375 L 2.265625 0 L 1.375 0 L 1.375 -8.453125 L 7.171875 -8.453125 L 7.171875 -7.6875 Z M 2.265625 -7.6875 "/></g></g></g><g fill="#c41818" fill-opacity="1"><g transform="translate(265.474003, 322.357788)"><g><path d="M 2.265625 -7.6875 L 2.265625 -4.359375 L 6.640625 -4.359375 L 6.640625 -3.59375 L 2.265625 -3.59375 L 2.265625 0 L 1.375 0 L 1.375 -8.453125 L 7.171875 -8.453125 L 7.171875 -7.6875 Z M 2.265625 -7.6875 "/></g></g></g><g fill="#c41818" fill-opacity="1"><g transform="translate(279.90976, 322.357788)"><g><path d="M 1.375 -8.453125 L 2.265625 -8.453125 L 2.265625 0 L 1.375 0 Z M 1.375 -8.453125 "/></g></g></g><g fill="#c41818" fill-opacity="1"><g transform="translate(290.35211, 322.357788)"><g><path d="M 5.046875 0.078125 C 4.210938 0.078125 3.457031 -0.101562 2.78125 -0.46875 C 2.113281 -0.84375 1.585938 -1.359375 1.203125 -2.015625 C 0.816406 -2.671875 0.625 -3.410156 0.625 -4.234375 C 0.625 -5.046875 0.816406 -5.78125 1.203125 -6.4375 C 1.585938 -7.09375 2.113281 -7.601562 2.78125 -7.96875 C 3.457031 -8.34375 4.21875 -8.53125 5.0625 -8.53125 C 5.6875 -8.53125 6.265625 -8.425781 6.796875 -8.21875 C 7.328125 -8.007812 7.78125 -7.703125 8.15625 -7.296875 L 7.578125 -6.734375 C 6.921875 -7.398438 6.085938 -7.734375 5.078125 -7.734375 C 4.410156 -7.734375 3.800781 -7.578125 3.25 -7.265625 C 2.707031 -6.960938 2.28125 -6.546875 1.96875 -6.015625 C 1.664062 -5.484375 1.515625 -4.890625 1.515625 -4.234375 C 1.515625 -3.566406 1.664062 -2.96875 1.96875 -2.4375 C 2.28125 -1.90625 2.707031 -1.484375 3.25 -1.171875 C 3.800781 -0.867188 4.410156 -0.71875 5.078125 -0.71875 C 6.097656 -0.71875 6.929688 -1.054688 7.578125 -1.734375 L 8.15625 -1.171875 C 7.78125 -0.765625 7.320312 -0.453125 6.78125 -0.234375 C 6.25 -0.0234375 5.671875 0.078125 5.046875 0.078125 Z M 5.046875 0.078125 "/></g></g></g><g fill="#c41818" fill-opacity="1"><g transform="translate(305.825421, 322.357788)"><g><path d="M 7.359375 -0.765625 L 7.359375 0 L 1.375 0 L 1.375 -8.453125 L 7.171875 -8.453125 L 7.171875 -7.6875 L 2.265625 -7.6875 L 2.265625 -4.671875 L 6.640625 -4.671875 L 6.640625 -3.90625 L 2.265625 -3.90625 L 2.265625 -0.765625 Z M 7.359375 -0.765625 "/></g></g></g><g clip-path="url(#c6993945dd)"><path fill="#c41818" d="M 113.0625 173.90625 C 115.921875 171.933594 119.070312 170.371094 122.433594 169.324219 C 124.90625 168.554688 127.480469 168.054688 130.132812 167.851562 L 245.976562 152.253906 L 245.976562 99.472656 L 176.605469 59.597656 L 107.242188 99.472656 L 107.242188 202.5 C 107.242188 209.558594 110.101562 215.953125 114.710938 220.574219 C 119.324219 225.207031 125.707031 228.070312 132.753906 228.070312 C 134.621094 228.070312 136.441406 227.863281 138.191406 227.480469 L 138.214844 227.480469 C 143.0625 226.417969 147.40625 223.972656 150.792969 220.578125 C 155.40625 215.957031 158.261719 209.558594 158.261719 202.5 C 158.261719 195.441406 155.40625 189.054688 150.792969 184.429688 C 146.171875 179.800781 139.796875 176.9375 132.753906 176.9375 C 130.09375 176.9375 127.535156 177.339844 125.160156 178.082031 C 122.664062 178.859375 120.34375 180.007812 118.253906 181.445312 Z M 155.054688 92.070312 C 158.546875 92.234375 162 92.386719 165.40625 92.542969 C 168.753906 92.691406 172.050781 92.835938 175.300781 92.984375 C 175.300781 96.347656 175.300781 99.699219 175.300781 103.054688 C 175.300781 106.40625 175.300781 109.761719 175.300781 113.113281 C 172.050781 113.121094 168.746094 113.121094 165.398438 113.132812 C 162 113.132812 158.546875 113.132812 155.054688 113.140625 C 155.054688 109.628906 155.054688 106.121094 155.054688 102.613281 C 155.054688 99.101562 155.054688 95.585938 155.054688 92.070312 Z M 155.054688 121.089844 C 158.546875 121.023438 162 120.964844 165.398438 120.902344 C 168.746094 120.84375 172.050781 120.777344 175.300781 120.722656 C 175.300781 124.074219 175.300781 127.4375 175.300781 130.78125 C 175.300781 134.136719 175.300781 137.488281 175.300781 140.835938 C 172.050781 141.046875 168.746094 141.261719 165.398438 141.472656 C 162 141.695312 158.546875 141.914062 155.054688 142.144531 C 155.054688 138.644531 155.054688 135.125 155.054688 131.617188 C 155.054688 128.117188 155.054688 124.597656 155.054688 121.089844 Z M 182.5 120.589844 C 185.601562 120.53125 188.652344 120.476562 191.667969 120.417969 C 194.636719 120.371094 197.5625 120.3125 200.457031 120.253906 C 200.457031 123.421875 200.457031 126.585938 200.457031 129.742188 C 200.457031 132.902344 200.457031 136.066406 200.457031 139.222656 C 197.5625 139.402344 194.636719 139.589844 191.667969 139.789062 C 188.65625 139.976562 185.601562 140.171875 182.5 140.375 C 182.5 137.089844 182.5 133.785156 182.5 130.488281 C 182.5 127.191406 182.5 123.886719 182.5 120.589844 Z M 182.5 93.3125 C 185.59375 93.449219 188.652344 93.589844 191.667969 93.722656 C 194.636719 93.859375 197.5625 93.992188 200.457031 94.121094 C 200.457031 97.289062 200.457031 100.445312 200.457031 103.609375 C 200.457031 106.765625 200.457031 109.933594 200.457031 113.089844 C 197.5625 113.097656 194.636719 113.097656 191.667969 113.097656 C 188.65625 113.105469 185.601562 113.105469 182.5 113.113281 C 182.5 109.808594 182.5 106.511719 182.5 103.210938 C 182.5 99.914062 182.5 96.617188 182.5 93.3125 Z M 152.6875 174.058594 C 154.320312 175.222656 155.863281 176.511719 157.273438 177.929688 C 163.550781 184.21875 167.4375 192.90625 167.4375 202.5 C 167.4375 209.949219 165.09375 216.855469 161.105469 222.515625 L 259.558594 201.183594 L 259.632812 201.183594 C 265.191406 200.054688 269.773438 196.773438 272.679688 192.375 C 275.601562 187.964844 276.839844 182.453125 275.714844 176.875 C 274.597656 171.304688 271.316406 166.714844 266.921875 163.796875 C 262.53125 160.867188 257.019531 159.625 251.453125 160.753906 L 251.167969 160.808594 Z M 140.917969 236.289062 C 138.296875 236.917969 135.570312 237.253906 132.753906 237.253906 C 123.175781 237.253906 114.5 233.367188 108.230469 227.078125 C 101.953125 220.789062 98.066406 212.101562 98.066406 202.5 L 98.066406 94.15625 L 176.605469 49.011719 L 255.144531 94.15625 L 255.144531 151.179688 C 261.257812 151.089844 267.09375 152.898438 271.976562 156.148438 C 278.3125 160.359375 283.046875 167 284.667969 175.074219 C 286.300781 183.140625 284.515625 191.089844 280.320312 197.4375 C 276.121094 203.757812 269.519531 208.496094 261.496094 210.136719 L 261.496094 210.15625 Z M 140.917969 236.289062 " fill-opacity="1" fill-rule="nonzero"/></g></svg>