<svg xmlns="http://www.w3.org/2000/svg" xmlns:xlink="http://www.w3.org/1999/xlink" width="500" zoomAndPan="magnify" viewBox="0 0 375 374.999991" height="500" preserveAspectRatio="xMidYMid meet" version="1.0"><defs><g/><clipPath id="53db14cee5"><path d="M 98.082031 49.011719 L 286 49.011719 L 286 237 L 98.082031 237 Z M 98.082031 49.011719 " clip-rule="nonzero"/></clipPath></defs><g fill="#231916" fill-opacity="1"><g transform="translate(18.386074, 293.450758)"><g><path d="M 21.589844 0.765625 C 30.191406 0.765625 36.273438 -5.480469 36.273438 -14.410156 C 36.273438 -23.234375 30.191406 -29.535156 21.589844 -29.535156 C 18.027344 -29.535156 14.902344 -28.4375 12.492188 -26.519531 L 12.492188 -40.546875 L 4.164062 -40.546875 L 4.164062 0 L 10.355469 0 L 11.289062 -3.289062 C 13.863281 -0.710938 17.425781 0.765625 21.589844 0.765625 Z M 12.164062 -14.410156 C 12.164062 -19.070312 15.453125 -22.410156 20.109375 -22.410156 C 24.820312 -22.410156 28.054688 -19.070312 28.054688 -14.410156 C 28.054688 -9.699219 24.820312 -6.410156 20.109375 -6.410156 C 15.453125 -6.410156 12.164062 -9.699219 12.164062 -14.410156 Z M 12.164062 -14.410156 "/></g></g></g><g fill="#231916" fill-opacity="1"><g transform="translate(55.149466, 293.450758)"><g><path d="M 15.617188 0.765625 C 19.398438 0.765625 22.792969 -0.546875 25.097656 -3.234375 L 25.972656 0 L 32.164062 0 L 32.164062 -28.765625 L 23.835938 -28.765625 L 23.835938 -13.753906 C 23.835938 -9.207031 21.371094 -6.410156 17.589844 -6.410156 C 14.082031 -6.410156 11.945312 -8.875 11.945312 -13.097656 L 11.945312 -28.765625 L 3.617188 -28.765625 L 3.617188 -12.273438 C 3.617188 -4.273438 8.164062 0.765625 15.617188 0.765625 Z M 15.617188 0.765625 "/></g></g></g><g fill="#231916" fill-opacity="1"><g transform="translate(89.830854, 293.450758)"><g><path d="M 4.164062 0 L 12.492188 0 L 12.492188 -28.765625 L 4.164062 -28.765625 Z M 2.957031 -38.082031 C 2.957031 -35.011719 5.152344 -32.875 8.328125 -32.875 C 11.507812 -32.875 13.699219 -35.011719 13.699219 -38.082031 C 13.699219 -41.152344 11.507812 -43.289062 8.328125 -43.289062 C 5.152344 -43.289062 2.957031 -41.152344 2.957031 -38.082031 Z M 2.957031 -38.082031 "/></g></g></g><g fill="#231916" fill-opacity="1"><g transform="translate(104.842828, 293.450758)"><g><path d="M 4.164062 0 L 12.492188 0 L 12.492188 -40.546875 L 4.164062 -40.546875 Z M 4.164062 0 "/></g></g></g><g fill="#231916" fill-opacity="1"><g transform="translate(119.854802, 293.450758)"><g><path d="M 16.765625 0.765625 C 20.929688 0.765625 24.492188 -0.710938 27.070312 -3.289062 L 28.054688 0 L 34.246094 0 L 34.246094 -40.546875 L 25.917969 -40.546875 L 25.917969 -26.519531 C 23.453125 -28.4375 20.328125 -29.535156 16.765625 -29.535156 C 8.21875 -29.535156 2.136719 -23.234375 2.136719 -14.410156 C 2.136719 -5.480469 8.21875 0.765625 16.765625 0.765625 Z M 10.355469 -14.410156 C 10.355469 -19.070312 13.589844 -22.410156 18.300781 -22.410156 C 22.957031 -22.410156 26.191406 -19.070312 26.191406 -14.410156 C 26.191406 -9.699219 22.957031 -6.410156 18.300781 -6.410156 C 13.589844 -6.410156 10.355469 -9.699219 10.355469 -14.410156 Z M 10.355469 -14.410156 "/></g></g></g><g fill="#231916" fill-opacity="1"><g transform="translate(156.618193, 293.450758)"><g/></g></g><g fill="#231916" fill-opacity="1"><g transform="translate(167.84969, 293.450758)"><g><path d="M 21.589844 0.765625 C 30.191406 0.765625 36.273438 -5.480469 36.273438 -14.410156 C 36.273438 -23.234375 30.191406 -29.535156 21.589844 -29.535156 C 17.425781 -29.535156 13.863281 -28.054688 11.289062 -25.480469 L 10.355469 -28.765625 L 4.164062 -28.765625 L 4.164062 10.957031 L 12.492188 10.957031 L 12.492188 -2.246094 C 14.902344 -0.328125 18.027344 0.765625 21.589844 0.765625 Z M 12.164062 -14.410156 C 12.164062 -19.070312 15.453125 -22.410156 20.109375 -22.410156 C 24.820312 -22.410156 28.054688 -19.070312 28.054688 -14.410156 C 28.054688 -9.699219 24.820312 -6.410156 20.109375 -6.410156 C 15.453125 -6.410156 12.164062 -9.699219 12.164062 -14.410156 Z M 12.164062 -14.410156 "/></g></g></g><g fill="#231916" fill-opacity="1"><g transform="translate(204.613082, 293.450758)"><g><path d="M 17.753906 0.765625 C 24.820312 0.765625 30.410156 -2.847656 32.929688 -8.929688 L 24.492188 -8.929688 C 23.125 -7.015625 20.65625 -5.917969 17.917969 -5.917969 C 14.136719 -5.917969 11.179688 -8.054688 10.410156 -12 L 33.480469 -12 C 33.972656 -22.519531 27.726562 -29.535156 17.863281 -29.535156 C 8.546875 -29.535156 2.136719 -23.34375 2.136719 -14.410156 C 2.136719 -5.425781 8.492188 0.765625 17.753906 0.765625 Z M 10.464844 -17.261719 C 11.398438 -20.765625 14.246094 -22.902344 17.917969 -22.902344 C 21.753906 -22.902344 24.492188 -20.765625 25.425781 -17.261719 Z M 10.464844 -17.261719 "/></g></g></g><g fill="#231916" fill-opacity="1"><g transform="translate(238.527426, 293.450758)"><g><path d="M 4.164062 0 L 12.492188 0 L 12.492188 -12.710938 C 12.492188 -18.902344 15.398438 -21.207031 20.164062 -21.207031 L 23.34375 -21.207031 L 23.34375 -28.765625 L 20.21875 -28.765625 C 16 -28.765625 13.316406 -27.617188 11.453125 -24.929688 L 10.355469 -28.765625 L 4.164062 -28.765625 Z M 4.164062 0 "/></g></g></g><g fill="#231916" fill-opacity="1"><g transform="translate(262.086558, 293.450758)"><g><path d="M 4.164062 0 L 12.492188 0 L 12.492188 -15.5625 C 12.492188 -19.726562 14.792969 -22.410156 18.355469 -22.410156 C 21.808594 -22.410156 23.945312 -19.835938 23.945312 -15.78125 L 23.945312 0 L 32.164062 0 L 32.164062 -15.5625 C 32.164062 -19.726562 34.464844 -22.410156 38.027344 -22.410156 C 41.480469 -22.410156 43.617188 -19.835938 43.617188 -15.78125 L 43.617188 0 L 51.945312 0 L 51.945312 -16.765625 C 51.945312 -24.65625 47.234375 -29.535156 39.890625 -29.535156 C 35.507812 -29.535156 31.890625 -27.835938 29.535156 -24.820312 C 27.507812 -27.890625 24.164062 -29.535156 20.054688 -29.535156 C 16.382812 -29.535156 13.261719 -28.273438 11.179688 -25.808594 L 10.355469 -28.765625 L 4.164062 -28.765625 Z M 4.164062 0 "/></g></g></g><g fill="#231916" fill-opacity="1"><g transform="translate(315.999057, 293.450758)"><g><path d="M 4.164062 0 L 12.492188 0 L 12.492188 -28.765625 L 4.164062 -28.765625 Z M 2.957031 -38.082031 C 2.957031 -35.011719 5.152344 -32.875 8.328125 -32.875 C 11.507812 -32.875 13.699219 -35.011719 13.699219 -38.082031 C 13.699219 -41.152344 11.507812 -43.289062 8.328125 -43.289062 C 5.152344 -43.289062 2.957031 -41.152344 2.957031 -38.082031 Z M 2.957031 -38.082031 "/></g></g></g><g fill="#231916" fill-opacity="1"><g transform="translate(331.011031, 293.450758)"><g><path d="M 18.027344 0 L 23.289062 0 L 23.289062 -7.234375 L 19.835938 -7.234375 C 16.546875 -7.234375 15.015625 -8.820312 15.015625 -12.164062 L 15.015625 -21.972656 L 22.902344 -21.972656 L 22.902344 -28.765625 L 15.015625 -28.765625 L 15.015625 -36.21875 L 8.546875 -36.21875 L 8.054688 -32.492188 C 7.617188 -29.535156 6.792969 -28.765625 3.671875 -28.765625 L 1.097656 -28.765625 L 1.097656 -21.972656 L 6.683594 -21.972656 L 6.683594 -10.902344 C 6.683594 -3.890625 10.738281 0 18.027344 0 Z M 18.027344 0 "/></g></g></g><g fill="#ffffff" fill-opacity="1"><g transform="translate(61.045733, 322.746747)"><g><path d="M 7.359375 -0.765625 L 7.359375 0 L 1.375 0 L 1.375 -8.453125 L 7.171875 -8.453125 L 7.171875 -7.6875 L 2.265625 -7.6875 L 2.265625 -4.671875 L 6.640625 -4.671875 L 6.640625 -3.90625 L 2.265625 -3.90625 L 2.265625 -0.765625 Z M 7.359375 -0.765625 "/></g></g></g><g fill="#ffffff" fill-opacity="1"><g transform="translate(75.91958, 322.746747)"><g><path d="M 8.4375 -8.453125 L 8.4375 0 L 7.703125 0 L 2.265625 -6.859375 L 2.265625 0 L 1.375 0 L 1.375 -8.453125 L 2.109375 -8.453125 L 7.5625 -1.59375 L 7.5625 -8.453125 Z M 8.4375 -8.453125 "/></g></g></g><g fill="#ffffff" fill-opacity="1"><g transform="translate(92.531543, 322.746747)"><g><path d="M 7.328125 -4.234375 L 8.1875 -4.234375 L 8.1875 -1 C 7.789062 -0.65625 7.320312 -0.390625 6.78125 -0.203125 C 6.25 -0.015625 5.679688 0.078125 5.078125 0.078125 C 4.234375 0.078125 3.472656 -0.101562 2.796875 -0.46875 C 2.117188 -0.84375 1.585938 -1.359375 1.203125 -2.015625 C 0.816406 -2.671875 0.625 -3.410156 0.625 -4.234375 C 0.625 -5.046875 0.816406 -5.78125 1.203125 -6.4375 C 1.585938 -7.09375 2.117188 -7.601562 2.796875 -7.96875 C 3.472656 -8.34375 4.238281 -8.53125 5.09375 -8.53125 C 5.738281 -8.53125 6.332031 -8.425781 6.875 -8.21875 C 7.414062 -8.007812 7.867188 -7.707031 8.234375 -7.3125 L 7.6875 -6.734375 C 7.007812 -7.398438 6.160156 -7.734375 5.140625 -7.734375 C 4.453125 -7.734375 3.832031 -7.582031 3.28125 -7.28125 C 2.726562 -6.976562 2.296875 -6.554688 1.984375 -6.015625 C 1.671875 -5.484375 1.515625 -4.890625 1.515625 -4.234375 C 1.515625 -3.566406 1.671875 -2.96875 1.984375 -2.4375 C 2.296875 -1.90625 2.722656 -1.484375 3.265625 -1.171875 C 3.816406 -0.867188 4.4375 -0.71875 5.125 -0.71875 C 5.988281 -0.71875 6.722656 -0.9375 7.328125 -1.375 Z M 7.328125 -4.234375 "/></g></g></g><g fill="#ffffff" fill-opacity="1"><g transform="translate(108.660705, 322.746747)"><g><path d="M 1.375 -8.453125 L 2.265625 -8.453125 L 2.265625 0 L 1.375 0 Z M 1.375 -8.453125 "/></g></g></g><g fill="#ffffff" fill-opacity="1"><g transform="translate(119.104748, 322.746747)"><g><path d="M 8.4375 -8.453125 L 8.4375 0 L 7.703125 0 L 2.265625 -6.859375 L 2.265625 0 L 1.375 0 L 1.375 -8.453125 L 2.109375 -8.453125 L 7.5625 -1.59375 L 7.5625 -8.453125 Z M 8.4375 -8.453125 "/></g></g></g><g fill="#ffffff" fill-opacity="1"><g transform="translate(135.71671, 322.746747)"><g><path d="M 7.359375 -0.765625 L 7.359375 0 L 1.375 0 L 1.375 -8.453125 L 7.171875 -8.453125 L 7.171875 -7.6875 L 2.265625 -7.6875 L 2.265625 -4.671875 L 6.640625 -4.671875 L 6.640625 -3.90625 L 2.265625 -3.90625 L 2.265625 -0.765625 Z M 7.359375 -0.765625 "/></g></g></g><g fill="#ffffff" fill-opacity="1"><g transform="translate(150.590555, 322.746747)"><g><path d="M 7.359375 -0.765625 L 7.359375 0 L 1.375 0 L 1.375 -8.453125 L 7.171875 -8.453125 L 7.171875 -7.6875 L 2.265625 -7.6875 L 2.265625 -4.671875 L 6.640625 -4.671875 L 6.640625 -3.90625 L 2.265625 -3.90625 L 2.265625 -0.765625 Z M 7.359375 -0.765625 "/></g></g></g><g fill="#ffffff" fill-opacity="1"><g transform="translate(165.464401, 322.746747)"><g><path d="M 7.15625 0 L 5.21875 -2.71875 C 5 -2.695312 4.773438 -2.6875 4.546875 -2.6875 L 2.265625 -2.6875 L 2.265625 0 L 1.375 0 L 1.375 -8.453125 L 4.546875 -8.453125 C 5.617188 -8.453125 6.460938 -8.191406 7.078125 -7.671875 C 7.691406 -7.160156 8 -6.457031 8 -5.5625 C 8 -4.894531 7.832031 -4.332031 7.5 -3.875 C 7.164062 -3.425781 6.6875 -3.101562 6.0625 -2.90625 L 8.125 0 Z M 4.515625 -3.4375 C 5.347656 -3.4375 5.988281 -3.617188 6.4375 -3.984375 C 6.882812 -4.359375 7.109375 -4.882812 7.109375 -5.5625 C 7.109375 -6.238281 6.882812 -6.757812 6.4375 -7.125 C 5.988281 -7.5 5.347656 -7.6875 4.515625 -7.6875 L 2.265625 -7.6875 L 2.265625 -3.4375 Z M 4.515625 -3.4375 "/></g></g></g><g fill="#ffffff" fill-opacity="1"><g transform="translate(180.99005, 322.746747)"><g><path d="M 1.375 -8.453125 L 2.265625 -8.453125 L 2.265625 0 L 1.375 0 Z M 1.375 -8.453125 "/></g></g></g><g fill="#ffffff" fill-opacity="1"><g transform="translate(191.434099, 322.746747)"><g><path d="M 8.4375 -8.453125 L 8.4375 0 L 7.703125 0 L 2.265625 -6.859375 L 2.265625 0 L 1.375 0 L 1.375 -8.453125 L 2.109375 -8.453125 L 7.5625 -1.59375 L 7.5625 -8.453125 Z M 8.4375 -8.453125 "/></g></g></g><g fill="#ffffff" fill-opacity="1"><g transform="translate(208.046067, 322.746747)"><g><path d="M 7.328125 -4.234375 L 8.1875 -4.234375 L 8.1875 -1 C 7.789062 -0.65625 7.320312 -0.390625 6.78125 -0.203125 C 6.25 -0.015625 5.679688 0.078125 5.078125 0.078125 C 4.234375 0.078125 3.472656 -0.101562 2.796875 -0.46875 C 2.117188 -0.84375 1.585938 -1.359375 1.203125 -2.015625 C 0.816406 -2.671875 0.625 -3.410156 0.625 -4.234375 C 0.625 -5.046875 0.816406 -5.78125 1.203125 -6.4375 C 1.585938 -7.09375 2.117188 -7.601562 2.796875 -7.96875 C 3.472656 -8.34375 4.238281 -8.53125 5.09375 -8.53125 C 5.738281 -8.53125 6.332031 -8.425781 6.875 -8.21875 C 7.414062 -8.007812 7.867188 -7.707031 8.234375 -7.3125 L 7.6875 -6.734375 C 7.007812 -7.398438 6.160156 -7.734375 5.140625 -7.734375 C 4.453125 -7.734375 3.832031 -7.582031 3.28125 -7.28125 C 2.726562 -6.976562 2.296875 -6.554688 1.984375 -6.015625 C 1.671875 -5.484375 1.515625 -4.890625 1.515625 -4.234375 C 1.515625 -3.566406 1.671875 -2.96875 1.984375 -2.4375 C 2.296875 -1.90625 2.722656 -1.484375 3.265625 -1.171875 C 3.816406 -0.867188 4.4375 -0.71875 5.125 -0.71875 C 5.988281 -0.71875 6.722656 -0.9375 7.328125 -1.375 Z M 7.328125 -4.234375 "/></g></g></g><g fill="#ffffff" fill-opacity="1"><g transform="translate(224.175231, 322.746747)"><g/></g></g><g fill="#ffffff" fill-opacity="1"><g transform="translate(234.136466, 322.746747)"><g><path d="M 5.078125 0.078125 C 4.234375 0.078125 3.472656 -0.109375 2.796875 -0.484375 C 2.117188 -0.859375 1.585938 -1.367188 1.203125 -2.015625 C 0.816406 -2.671875 0.625 -3.410156 0.625 -4.234375 C 0.625 -5.046875 0.816406 -5.773438 1.203125 -6.421875 C 1.585938 -7.078125 2.117188 -7.59375 2.796875 -7.96875 C 3.472656 -8.34375 4.234375 -8.53125 5.078125 -8.53125 C 5.910156 -8.53125 6.660156 -8.34375 7.328125 -7.96875 C 8.003906 -7.601562 8.535156 -7.09375 8.921875 -6.4375 C 9.304688 -5.78125 9.5 -5.046875 9.5 -4.234375 C 9.5 -3.410156 9.304688 -2.671875 8.921875 -2.015625 C 8.535156 -1.359375 8.003906 -0.84375 7.328125 -0.46875 C 6.660156 -0.101562 5.910156 0.078125 5.078125 0.078125 Z M 5.078125 -0.71875 C 5.742188 -0.71875 6.34375 -0.867188 6.875 -1.171875 C 7.414062 -1.472656 7.835938 -1.890625 8.140625 -2.421875 C 8.453125 -2.960938 8.609375 -3.566406 8.609375 -4.234375 C 8.609375 -4.890625 8.453125 -5.484375 8.140625 -6.015625 C 7.835938 -6.554688 7.414062 -6.976562 6.875 -7.28125 C 6.34375 -7.582031 5.742188 -7.734375 5.078125 -7.734375 C 4.398438 -7.734375 3.789062 -7.582031 3.25 -7.28125 C 2.707031 -6.976562 2.28125 -6.554688 1.96875 -6.015625 C 1.664062 -5.484375 1.515625 -4.890625 1.515625 -4.234375 C 1.515625 -3.566406 1.664062 -2.960938 1.96875 -2.421875 C 2.28125 -1.890625 2.707031 -1.472656 3.25 -1.171875 C 3.789062 -0.867188 4.398438 -0.71875 5.078125 -0.71875 Z M 5.078125 -0.71875 "/></g></g></g><g fill="#ffffff" fill-opacity="1"><g transform="translate(251.062265, 322.746747)"><g><path d="M 2.265625 -7.6875 L 2.265625 -4.359375 L 6.640625 -4.359375 L 6.640625 -3.59375 L 2.265625 -3.59375 L 2.265625 0 L 1.375 0 L 1.375 -8.453125 L 7.171875 -8.453125 L 7.171875 -7.6875 Z M 2.265625 -7.6875 "/></g></g></g><g fill="#ffffff" fill-opacity="1"><g transform="translate(265.501584, 322.746747)"><g><path d="M 2.265625 -7.6875 L 2.265625 -4.359375 L 6.640625 -4.359375 L 6.640625 -3.59375 L 2.265625 -3.59375 L 2.265625 0 L 1.375 0 L 1.375 -8.453125 L 7.171875 -8.453125 L 7.171875 -7.6875 Z M 2.265625 -7.6875 "/></g></g></g><g fill="#ffffff" fill-opacity="1"><g transform="translate(279.940891, 322.746747)"><g><path d="M 1.375 -8.453125 L 2.265625 -8.453125 L 2.265625 0 L 1.375 0 Z M 1.375 -8.453125 "/></g></g></g><g fill="#ffffff" fill-opacity="1"><g transform="translate(290.384929, 322.746747)"><g><path d="M 5.046875 0.078125 C 4.210938 0.078125 3.457031 -0.101562 2.78125 -0.46875 C 2.113281 -0.84375 1.585938 -1.359375 1.203125 -2.015625 C 0.816406 -2.671875 0.625 -3.410156 0.625 -4.234375 C 0.625 -5.046875 0.816406 -5.78125 1.203125 -6.4375 C 1.585938 -7.09375 2.113281 -7.601562 2.78125 -7.96875 C 3.457031 -8.34375 4.21875 -8.53125 5.0625 -8.53125 C 5.6875 -8.53125 6.265625 -8.425781 6.796875 -8.21875 C 7.328125 -8.007812 7.78125 -7.703125 8.15625 -7.296875 L 7.578125 -6.734375 C 6.921875 -7.398438 6.085938 -7.734375 5.078125 -7.734375 C 4.410156 -7.734375 3.800781 -7.578125 3.25 -7.265625 C 2.707031 -6.960938 2.28125 -6.546875 1.96875 -6.015625 C 1.664062 -5.484375 1.515625 -4.890625 1.515625 -4.234375 C 1.515625 -3.566406 1.664062 -2.96875 1.96875 -2.4375 C 2.28125 -1.90625 2.707031 -1.484375 3.25 -1.171875 C 3.800781 -0.867188 4.410156 -0.71875 5.078125 -0.71875 C 6.097656 -0.71875 6.929688 -1.054688 7.578125 -1.734375 L 8.15625 -1.171875 C 7.78125 -0.765625 7.320312 -0.453125 6.78125 -0.234375 C 6.25 -0.0234375 5.671875 0.078125 5.046875 0.078125 Z M 5.046875 0.078125 "/></g></g></g><g fill="#ffffff" fill-opacity="1"><g transform="translate(305.862284, 322.746747)"><g><path d="M 7.359375 -0.765625 L 7.359375 0 L 1.375 0 L 1.375 -8.453125 L 7.171875 -8.453125 L 7.171875 -7.6875 L 2.265625 -7.6875 L 2.265625 -4.671875 L 6.640625 -4.671875 L 6.640625 -3.90625 L 2.265625 -3.90625 L 2.265625 -0.765625 Z M 7.359375 -0.765625 "/></g></g></g><g clip-path="url(#53db14cee5)"><path fill="#ffffff" d="M 113.074219 173.726562 C 115.933594 171.757812 119.085938 170.195312 122.449219 169.152344 C 124.925781 168.382812 127.5 167.886719 130.152344 167.679688 L 246.0625 152.105469 L 246.0625 99.398438 L 176.652344 59.582031 L 107.25 99.398438 L 107.25 202.28125 C 107.25 209.328125 110.109375 215.714844 114.722656 220.332031 C 119.339844 224.953125 125.726562 227.8125 132.777344 227.8125 C 134.644531 227.8125 136.46875 227.609375 138.214844 227.226562 L 138.238281 227.226562 C 143.089844 226.164062 147.4375 223.71875 150.828125 220.332031 C 155.441406 215.714844 158.300781 209.328125 158.300781 202.28125 C 158.300781 195.230469 155.441406 188.851562 150.828125 184.238281 C 146.203125 179.613281 139.824219 176.757812 132.777344 176.757812 C 130.113281 176.757812 127.554688 177.15625 125.179688 177.898438 C 122.679688 178.675781 120.359375 179.820312 118.269531 181.257812 Z M 155.089844 92.007812 C 158.585938 92.171875 162.039062 92.324219 165.445312 92.480469 C 168.792969 92.628906 172.09375 92.773438 175.34375 92.921875 C 175.34375 96.277344 175.34375 99.628906 175.34375 102.976562 C 175.34375 106.324219 175.34375 109.675781 175.34375 113.023438 C 172.09375 113.03125 168.785156 113.03125 165.4375 113.039062 C 162.039062 113.039062 158.585938 113.039062 155.089844 113.046875 C 155.089844 109.542969 155.089844 106.039062 155.089844 102.535156 C 155.089844 99.03125 155.089844 95.519531 155.089844 92.007812 Z M 155.089844 120.984375 C 158.585938 120.921875 162.039062 120.863281 165.4375 120.796875 C 168.785156 120.742188 172.09375 120.675781 175.34375 120.617188 C 175.34375 123.96875 175.34375 127.324219 175.34375 130.664062 C 175.34375 134.015625 175.34375 137.363281 175.34375 140.703125 C 172.09375 140.914062 168.785156 141.128906 165.4375 141.339844 C 162.039062 141.5625 158.585938 141.78125 155.089844 142.011719 C 155.089844 138.515625 155.089844 135.003906 155.089844 131.5 C 155.089844 128.003906 155.089844 124.492188 155.089844 120.984375 Z M 182.550781 120.488281 C 185.652344 120.429688 188.707031 120.375 191.722656 120.316406 C 194.695312 120.265625 197.621094 120.210938 200.519531 120.152344 C 200.519531 123.3125 200.519531 126.472656 200.519531 129.628906 C 200.519531 132.78125 200.519531 135.941406 200.519531 139.09375 C 197.621094 139.273438 194.695312 139.460938 191.722656 139.65625 C 188.707031 139.84375 185.652344 140.042969 182.550781 140.246094 C 182.550781 136.960938 182.550781 133.664062 182.550781 130.371094 C 182.550781 127.078125 182.550781 123.78125 182.550781 120.488281 Z M 182.550781 93.25 C 185.644531 93.386719 188.707031 93.527344 191.722656 93.65625 C 194.695312 93.796875 197.621094 93.925781 200.519531 94.058594 C 200.519531 97.21875 200.519531 100.371094 200.519531 103.53125 C 200.519531 106.683594 200.519531 109.84375 200.519531 113 C 197.621094 113.007812 194.695312 113.007812 191.722656 113.007812 C 188.707031 113.015625 185.652344 113.015625 182.550781 113.023438 C 182.550781 109.722656 182.550781 106.429688 182.550781 103.132812 C 182.550781 99.839844 182.550781 96.546875 182.550781 93.25 Z M 152.71875 173.878906 C 154.355469 175.039062 155.898438 176.332031 157.3125 177.742188 C 163.59375 184.023438 167.480469 192.699219 167.480469 202.28125 C 167.480469 209.71875 165.136719 216.613281 161.140625 222.265625 L 259.652344 200.964844 L 259.726562 200.964844 C 265.289062 199.835938 269.871094 196.5625 272.777344 192.167969 C 275.703125 187.765625 276.945312 182.261719 275.816406 176.691406 C 274.699219 171.128906 271.414062 166.546875 267.019531 163.632812 C 262.625 160.707031 257.113281 159.464844 251.542969 160.59375 L 251.257812 160.648438 Z M 140.941406 236.019531 C 138.320312 236.648438 135.59375 236.984375 132.773438 236.984375 C 123.195312 236.984375 114.511719 233.105469 108.238281 226.824219 C 101.957031 220.542969 98.070312 211.867188 98.070312 202.28125 L 98.070312 94.089844 L 176.652344 49.011719 L 255.234375 94.089844 L 255.234375 151.035156 C 261.351562 150.945312 267.191406 152.75 272.078125 155.992188 C 278.414062 160.199219 283.152344 166.832031 284.777344 174.894531 C 286.410156 182.945312 284.621094 190.886719 280.421875 197.222656 C 276.226562 203.539062 269.617188 208.265625 261.589844 209.90625 L 261.589844 209.925781 Z M 140.941406 236.019531 " fill-opacity="1" fill-rule="nonzero"/></g></svg>